<mxfile host="65bd71144e">
    <diagram id="JKADklNTHve8EEosDH_w" name="Page-1">
        <mxGraphModel dx="780" dy="519" grid="0" gridSize="10" guides="1" tooltips="1" connect="1" arrows="1" fold="1" page="0" pageScale="1" pageWidth="850" pageHeight="1100" background="#ffffff" math="0" shadow="0">
            <root>
                <mxCell id="0"/>
                <mxCell id="1" parent="0"/>
                <mxCell id="3" value="&lt;b&gt;&lt;font style=&quot;font-size: 14px;&quot;&gt;Google Cloud&lt;/font&gt;&lt;/b&gt;" style="points=[[0,0],[0.25,0],[0.5,0],[0.75,0],[1,0],[1,0.25],[1,0.5],[1,0.75],[1,1],[0.75,1],[0.5,1],[0.25,1],[0,1],[0,0.75],[0,0.5],[0,0.25]];outlineConnect=0;gradientColor=none;html=1;whiteSpace=wrap;fontSize=12;fontStyle=0;container=1;pointerEvents=0;collapsible=0;recursiveResize=0;shape=mxgraph.aws4.group;grIcon=mxgraph.aws4.group_aws_cloud;strokeColor=#232F3E;fillColor=none;verticalAlign=top;align=left;spacingLeft=30;fontColor=#232F3E;dashed=0;" parent="1" vertex="1">
                    <mxGeometry x="142" y="159" width="496" height="393" as="geometry"/>
                </mxCell>
                <mxCell id="4" value="&lt;b&gt;&lt;font color=&quot;#003300&quot; style=&quot;font-size: 14px;&quot;&gt;Virtual Private Cloud (VPC)&lt;/font&gt;&lt;/b&gt;" style="points=[[0,0],[0.25,0],[0.5,0],[0.75,0],[1,0],[1,0.25],[1,0.5],[1,0.75],[1,1],[0.75,1],[0.5,1],[0.25,1],[0,1],[0,0.75],[0,0.5],[0,0.25]];outlineConnect=0;gradientColor=none;html=1;whiteSpace=wrap;fontSize=12;fontStyle=0;container=1;pointerEvents=0;collapsible=0;recursiveResize=0;shape=mxgraph.aws4.group;grIcon=mxgraph.aws4.group_vpc;strokeColor=#248814;fillColor=none;verticalAlign=top;align=left;spacingLeft=30;fontColor=#AAB7B8;dashed=0;" parent="3" vertex="1">
                    <mxGeometry x="10.25" y="46" width="475.5" height="325" as="geometry"/>
                </mxCell>
                <mxCell id="8" value="Private subnet" style="points=[[0,0],[0.25,0],[0.5,0],[0.75,0],[1,0],[1,0.25],[1,0.5],[1,0.75],[1,1],[0.75,1],[0.5,1],[0.25,1],[0,1],[0,0.75],[0,0.5],[0,0.25]];outlineConnect=0;gradientColor=none;html=1;whiteSpace=wrap;fontSize=12;fontStyle=0;container=1;pointerEvents=0;collapsible=0;recursiveResize=0;shape=mxgraph.aws4.group;grIcon=mxgraph.aws4.group_security_group;grStroke=0;strokeColor=#147EBA;fillColor=#E6F2F8;verticalAlign=top;align=left;spacingLeft=30;fontColor=#147EBA;dashed=0;" parent="4" vertex="1">
                    <mxGeometry x="15.75" y="60.5" width="186.25" height="230" as="geometry"/>
                </mxCell>
                <mxCell id="34" value="" style="group" parent="8" vertex="1" connectable="0">
                    <mxGeometry x="33" y="63.5" width="120" height="120" as="geometry"/>
                </mxCell>
                <mxCell id="20" value="" style="whiteSpace=wrap;html=1;aspect=fixed;fontSize=14;fillColor=#FFFFFF;strokeColor=#B3B3B3;gradientColor=none;fillStyle=auto;" parent="34" vertex="1">
                    <mxGeometry width="120" height="120" as="geometry"/>
                </mxCell>
                <mxCell id="30" value="" style="shape=image;verticalLabelPosition=bottom;labelBackgroundColor=default;verticalAlign=top;aspect=fixed;imageAspect=0;image=data:image/png,iVBORw0KGgoAAAANSUhEUgAAAgAAAAIACAYAAAD0eNT6AAAAAXNSR0IArs4c6QAAIABJREFUeAHt3UFundeRhmEvRAvx0Ii3oCUI8SzjHnmQ2AaCRuDMDWWSUcNwOxn0ICtwAAPZjGFSiQdsnO78hECJ5OXlV+Ip1tMAQVokP/18q07Vy3MV9Ecf+T8EEEAAAQQQQAABBBBAAAEEEEAAAQQQQAABBBBAAAEEEEAAAQQQQAABBBBAAAEEEEAAAQQQQAABBBBAAAEEEEAAAQQQQAABBBBAAAEEEEAAAQQQQAABBBBAAAEEEEAAAQQQQAABBBBAAAEEEEAAAQQQQAABBBBAAAEEEEAAAQQQQAABBBBAAAEEEEAAAQQQQAABBBBAAAEEEEAAAQQQQAABBBBAAAEEEEAAAQQQQAABBBBAAAEEEEAAAQQQQAABBBBAAAEEEEAAAQQQQAABBBBAAAEEEEAAAQQQQAABBBBAAAEEEEAAAQQQQAABBBBAAAEEEEAAAQQQQAABBBBAAAEEEEAAAQQQQAABBBBAAAEEEEAAAQQQQAABBBBAAAEEEEAAAQQQQAABBBBAAAEEEEAAAQQQQAABBBBAAAEEEEAAAQQQQAABBBBAAAEEEEAAAQQQQAABBBBAAAEEEEAAAQQQQAABBBBAAAEEEEAAAQQQQAABBBBAAAEEEEAAAQQQQAABBBBAAAEEEEAAAQQQQAABBBBAAAEEEEAAAQQQQAABBBB45gRefXPx8Wd/unjZ4a1LKV59c/GiA8/1jOtZu3BtxPTjLkw9JwIIDCbw6vWbb3/9+vKqw1uXMq1F1YHnesb1rF24dmG6zlQXpp4TAQQGEyAA+eITgDzTlUgAarhKRQCBoQQIQL7wBCDPdCUSgBquUhFAYCgBApAvPAHIM12JBKCGq1QEEBhKgADkC08A8kxXIgGo4SoVAQSGEiAA+cITgDzTlUgAarhKRQCBoQQIQL7wBCDPdCUSgBquUhFAYCgBApAvPAHIM12JBKCGq1QEEBhKgADkC08A8kxXIgGo4SoVAQSGEiAA+cITgDzTlUgAarhKRQCBoQQIQL7wBCDPdCUSgBquUhFAYCgBApAvPAHIM12JBKCGq1QEEBhKgADkC08A8kxXIgGo4SoVAQSGEiAA+cITgDzTlUgAarhKRQCBoQQIQL7wBCDPdCUSgBquUhFAYCgBApAvPAHIM12JBKCGq1QEEBhKgADkC08A8kxXIgGo4SoVAQSGEiAA+cITgDzTlUgAarhKRQCBoQQIQL7wBCDPdCUSgBquUhFAYCgBApAvPAHIM12JBKCGq1QEEBhKgADkC08A8kxXIgGo4SoVAQSGEiAA+cITgDzTlUgAarhKRQCBoQQIQL7wBCDPdCUSgBquUhFAYCgBApAvPAHIM12JBKCGq1QEEBhKgADkC08A8kxXIgGo4SoVAQSGEiAA+cITgDzTlUgAarhKRQCBoQQIQL7wBCDPdCUSgBquUhFAYCgBApAvPAHIM12JBKCGq1QEEBhKgADkC08A8kxXIgGo4SoVAQSGEiAA+cITgDzTlUgAarhKRQCBoQQIQL7wBCDPdCUSgBquUhFAYCgBApAvPAHIM12JBKCGq1QEEBhKgADkC08A8kxXIgGo4SoVAQSGEiAA+cITgDzTlUgAarhKRQCBoQQIQL7wBCDPdCUSgBquUhFAYCgBApAvPAHIM12JBKCGq1QEEBhKgADkC08A8kxXIgGo4SoVAQSGEiAA+cITgDzTlUgAarhKRQCBoQQIQL7wBCDPdCUSgBquUhFAYCgBApAvPAHIM12JBKCGq1QEEBhKgADkC08A8kxXIgGo4SoVAQSGEiAA+cITgDzTlUgAarhKRQCBoQQIQL7wBCDPdCUSgBquUhFAYCgBApAvPAHIM12JBKCGq1QEEBhKgADkC08A8kxXIgGo4SoVAQSGEiAA+cITgDzTlUgAarhKRQCBoQQIQL7wBCDPdCUSgBquUhFAYCgBApAvPAHIM12JBKCGq1QEEBhKgADkC08A8kxXIgGo4SoVAQSGEiAA+cITgDzTlUgAarhKRQCBoQQIQL7wBCDPdCUSgBquUhFAYCgBApAvPAHIM12JBKCGq1QEEBhKgADkC08A8kxXIgGo4SoVAQSGEiAA+cITgDzTlUgAarhKRQCBoQQIQL7wBCDPdCUSgBquUhFAYCgBApAvPAHIM12JBKCGq1QEEBhKgADkC08A8kxXIgGo4SoVAQSGEiAA+cITgDzTlUgAarhKRQCBoQQIQL7wBCDPdCUSgBquUhFAYCgBApAvPAHIM12JBKCGq1QEEBhKgADkC08A8kxXIgGo4SoVAQSGEiAA+cITgDzTlUgAarhKRQCBoQQIQL7wBCDPdCUSgBquUhFAIEjgu79fvPjLP/75ssPb7/56+cPn311edXjrwHM94x//9ubrDjzXM65n7cK1C9N1prowXbMqOPpEIYDAOvzf//jLlTcM9IAe2LkH1qwysRFAIEiAABj6Ow99z6Y/jx4gAMHBLwqBRYAAGLDHgPVeL+zcAwTAzkIgTIAAGPo7D33Ppj+PHiAA4eEvDgECYMAeA9Z7vbBzDxAA+wqBMAECYOjvPPQ9m/48eoAAhIe/OAQIgAF7DFjv9cLOPUAA7CsEwgQIgKG/89D3bPrz6AECEB7+4hAgAAbsMWC91ws79wABsK8QCBMgAIb+zkPfs+nPowcIQHj4i0OAABiwx4D1Xi/s3AMEwL5CIEyAABj6Ow99z6Y/jx4gAOHhLw4BAmDAHgPWe72wcw8QAPsKgTABAmDo7zz0PZv+PHqAAISHvzgECIABewxY7/XCzj1AAOwrBMIECIChv/PQ92z68+gBAhAe/uIQIAAG7DFgvdcLO/cAAbCvEAgTIACG/s5D37Ppz6MHCEB4+ItDgAAYsMeA9V4v7NwDBMC+QiBMgAAY+jsPfc+mP48eIADh4S8OAQJgwB4D1nu9sHMPEAD7CoEwAQJg6O889D2b/jx6gACEh784BAiAAXsMWO/1ws49QADsKwTCBAiAob/z0Pds+vPoAQIQHv7iECAABuwxYL3XCzv3AAGwrxAIEyAAhv7OQ9+z6c+jBwhAePiLQ4AAGLDHgPVeL+zcAwTAvkIgTIAAGPo7D33Ppj+PHiAA4eEvDgECYMAeA9Z7vbBzDxAA+wqBMAECYOjvPPQ9m/48eoAAhIe/OAQIgAF7DFjv9cLOPUAA7CsEwgQIgKG/89D3bPrz6AECEB7+4hAgAAbsMWC91ws79wABsK8QCBMgAIb+zkPfs+nPowcIQHj4i0OAABiwx4D1Xi/s3AMEwL5CIEyAABj6Ow99z6Y/jx4gAOHhLw4BAmDAHgPWe72wcw8QAPsKgTABAmDo7zz0PZv+PHqAAISHvzgECIABewxY7/XCzj1AAOwrBMIECIChv/PQ92z68+gBAhAe/uIQIAAG7DFgvdcLO/cAAbCvEAgTIACG/s5D37Ppz6MHCEB4+Iv76KNX31x8/Or1m2+nvv3ur5c/HAds9/f//eO//rCGgDcM9ECmB9aZ2v3cH8/3mz9f/vDJlz9/O/bti4uP7ewwgc/+dPHy168vr6a+ff7d5dVxwHZ/7zeAcPOLG09gnandz/3xfK9eX1796sufx759+tVPL8c3bBrAZAFYB4oApDtKHgJ9CHQSgPVLGgHo01stnnSyAKwDRQBatKmHRKCEQCcBcAPgBiB+CCYLgBuAeDsJRKAVgU4C4AaAAMQP12QBcAMQbyeBCLQi0EkA3AAQgPjhmiwAbgDi7SQQgVYEOgmAGwACED9ckwXADUC8nQQi0IpAJwFwA0AA4odrsgC4AYi3k0AEWhHoJABuAAhA/HBNFgA3APF2EohAKwKdBMANAAGIH67JAuAGIN5OAhFoRaCTALgBIADxwzVZANwAxNtJIAKtCHQSADcABCB+uCYLgBuAeDsJRKAVgU4C4AaAAMQP12QBcAMQbyeBCLQi0EkA3AAQgPjhmiwAbgDi7SQQgVYEOgmAGwACED9ckwXADUC8nQQi0IpAJwFwA0AA4odrsgC4AYi3k0AEWhHoJABuAAhA/HBNFgA3APF2EohAKwKdBMANAAGIH67JAuAGIN5OAhFoRaCTALgBIADxwzVZANwAxNtJIAKtCHQSADcABCB+uCYLgBuAeDsJRKAVgU4C4AaAAMQP12QBcAMQbyeBCLQi0EkA3AAQgPjhmiwAbgDi7SQQgVYEOgmAGwACED9ckwXADUC8nQQi0IpAJwFwA0AA4odrsgC4AYi3k0AEWhHoJABuAAhA/HBNFgA3APF2EohAKwKdBMANAAGIH67JAuAGIN5OAhFoRaCTALgBIADxwzVZANwAxNtJIAKtCHQSADcABCB+uCYLgBuAeDsJRKAVgU4C4AaAAMQP12QBcAMQbyeBCLQi0EkA3AAQgPjhmiwAbgDi7SQQgVYEOgmAGwACED9ckwXADUC8nQQi0IpAJwFwA0AA4odrsgC4AYi3k0AEWhHoJABuAAhA/HBNFgA3APF2EohAKwKdBMANAAGIH67JAuAGIN5OAhFoRaCTALgBIADxwzVZANwAxNtJIAKtCHQSADcABCB+uCYLgBuAeDsJRKAVgU4C4AaAAMQP12QBcAMQbyeBCLQi0EkA3AAQgPjhmiwAbgDi7SQQgVYEOgmAGwACED9ckwXADUC8nQQi0IpAJwFwA0AA4odrsgC4AYi3k0AEWhHoJABuAAhA/HBNFgA3APF2EohAKwKdBMANAAGIH67JAuAGIN5OAhFoRaCTALgBIACtDleHh+00ANazdmC6nvH7H3+58jaTwX/81+VVlz51/rtUynMiUEDAACiASgDGys9a/r/68mcCUCDAnX4BqJkqUhEIEyAAYaD/jvPb/7zf/o/lTwBqak8AamaV1MEECEBN8QlAzRLYlevby58A1NSeANTMKqmDCRCAmuLvuqg8V3453Vz+BCDPePUtAaiZVVIHEyAANcW3aGuWwG5c37f8CUBN7QlAzaySOpgAAagp/m6LyvPkl9Jty58A5Fmv/iUANbNK6mACBKCm+BZuzRLYhetdy58A1NSeANTMKqmDCRCAmuLvsqg8R34Z3bf8CUCe+epjAlAzq6QOJkAAaopv8dYsgafmesryJwA1tScANbNK6mACBKCm+E+9qPz9+SV06vInAHn2q58JQM2skjqYAAGoKb4FXLMEnorrQ5Y/AaipPQGomVVSBxMgADXFf6pF5e/NL5+HLn8CkK/B6msCUDOrpA4mQABqim8R1yyBD831nOVPAGpqTwBqZpXUwQQIQE3xP/Si8vfll865y58A5Gux+psA1MwqqYMJEICa4lvINUvgQ3F9zPInADW1JwA1s0rqYAIEoKb4H2pR+Xvyy+axy58A5Guy+pwA1MwqqYMJEICa4lvMNUugmmti+ROAmtoTgJpZJXUwAQJQU/zqRSU/v2RSy58A5Guz+p0A1MwqqYMJEICa4lvQNUugimty+ROAmtoTgJpZJXUwAQJQU/yqRSU3v1zSy58A5Gu0+p4A1MwqqYMJEICa4lvUNUsgzbVi+ROAmtoTgJpZJXUwAQJQU/z0opKXXypVy58A5Gu1+p8A1MwqqYMJEICa4lvYNUsgxbVy+ROAmtoTgJpZJXUwAQJQU/zUopKTXybVy58A5Gu2zgEBqJlVUgcTIAA1xbe4a5bAY7l+iOVPAGpqTwBqZpXUwQQIQE3xH7uofH9+iXyo5U8A8rVb54EA1MwqqYMJEICa4lvgNUvgXK4fcvkTgJraE4CaWSV1MAECUFP8cxeV78svjw+9/AlAvobrXBCAmlkldTABAlBTfIu8Zgk8lOtTLH8CUFN7AlAzq6QOJkAAaor/0EXl6/NL46mWPwHI13KdDwJQM6ukDiZAAGqKb6HXLIFTuT7l8icANbUnADWzSupgAgSgpvinLipfl18WT738CUC+puucEICaWSV1MAECUFN8i71mCdzHdYflTwBqak8AamaV1MEECEBN8e9bVD6fXxK7LH8CkK/tOi8EoGZWSR1MgADUFN+Cr1kCt3HdafkTgJraE4CaWSV1MAECUFP82xaVP88vh92WPwHI13idGwJQM6ukDiZAAGqKb9HXLIGbXHdc/gSgpvYEoGZWSR1MgADUFP/movLf+aWw6/InAPlar/NDAGpmldTBBAhATfEt/JolcHDdefkTgJraE4CaWSV1MAECUFP8Y1F5n18Guy9/ApCv+TpHBKBmVkkdTIAA1BTf4q9ZAh2WPwGoqT0BqJlVo1NffXPx4rM/Xbyc+vbHv735usuy6jQAujDt9Jxdlj8BqBGA337/5utPv/rp5dS3T35/8WL0sq744dfi//Xry6uJb69eX159/t3lVZclQABqBmuH+nda/gSgpk/XvFpsp74t8anYgaMzJwvAkh4CUNP+HZZql2fstvwJAAGokBQCUDCrJwuAG4CChvp3ZJfluvtzdlz+BKBGANYvLBWLtUsmASiY15MFwA1AQUMRgNhLSl2XPwGoEQAvAXgJID6xJwuAG4B4O10H7v6b9e7P13n5E4AaAXADQACuB2zqg8kC4AYg1UXv5uy+YHd+vu7LnwDUCIAbAALw7qR95J9MFgA3AI9snju+fecFu/OzPYflTwBqBMANAAG4Y+Se96nJAuAG4LyeOeW7dl6yuz7bc1n+BKBGANwAEIBTZu+DvmayALgBeFCrPOiLd12yuz7Xc1r+BKBGANwAEIAHDeFTvniyALgBOKVDzvuaXRftjs/13JY/AagRADcABOC8aXzHd00WADcAdzTGIz+146Ld8Zme4/InADUC4AaAADxyLL/77ZMFwA3Au/2Q+pMdl+1uz/Rclz8BqBEANwAEIDWfr3MmC4AbgOs2iH+w27Ld7Xme8/InADUC4AaAAMQH9WQBcAMQb6frwN0W7k7P89yXPwGoEQA3AATgesCmPpgsAG4AUl30bs5OC3enZ5mw/AlAjQC4ASAA707aR/7JZAFwA/DI5rnj23daurs8y5TlTwBqBMANAAG4Y+Se96nJAuAG4LyeOeW7dlm6uzzHpOVPAGoEwA0AAThl9j7oayYLgBuAB7XKg754l8W7w3NMW/4EoEYA3AAQgAcN4VO+eLIAuAE4pUPO+5odFu8OzzBx+ROAGgFwA0AAzpvGd3zXZAFwA3BHYzzyUzss36d+hqnLnwDUCIAbAALwyLH87rdPFgA3AO/2Q+pPnnr5PvXfP3n5E4AaAXADQABS8/k6Z7IAuAG4boP4B0+9gJ/y7//8u8ur6cM63lBFgX/5xz9fPmWvPOTvdgNAAOLHYLIAuAGIt9N14EMG23P62v/8n3/+3/JfAjB5YF83wuYfdBKA6VL56VcEIH6cJguAG4B4O10HPqelfurPcvzmv/rq7bd1JT7t7boRNv+gkwBMFsp1fghAwWGaLABuAAoa6t+Rpy7N5/J1b//m//byPz4mAHW99pjkTgKwemlaH7398xKAx3T6Ld87WQDWgVq/tXVZQmtY3VLG7f64C9PEc67lv2TyWPa3vX97mD33j7dryFseqJMAuAHwEsAtbXz+H08WADcA5/fNfd+ZWKwdMo7lf4oATPoN7r7+2OXznQRgUv+8T5DdABScmskCsA6UG4CCpvroo486LO/HPuPxmv+py/+4GXjfcHtuf1bTVfnUTgLgBsANQPwETBYANwDxdroOfOxy3f3773vN/1j2t71/bgv/5s9z3Qibf9BJAFYv3eQ86b/dABQcpskCsA6UG4CCpnrmNwAPvfafKAE1XZVP7SQAbgDcAMRPwGQBcAMQb6frwN1/gz/3+Y7lf9tSf+ifP9ff4K4bYfMPOgnA6q3n2i+n/FxuAAoO02QBWAfKDUBBUz3TG4BzX/O/TwpOGX7dvqamq/KpnQTADYAbgPgJmCwAbgDi7XQdeO5v2Lt+32Nf858mAdeNsPkHnQTADQABiB+nyQLgBiDeTteBuy7yc57ruPZfwnjfIn/M57v9ln/X8143wuYfdBIANwAEIH6cJguAG4B4O10HnrNod/yeY/k/ZrE/5HvvWqqdPnfdCJt/0EkAVh916oH0s/o3AAWHabIArAPl3wAUNNUz+TcAVa/53ycE6cH5FHk1XZVP7SQAbgDcAMRPwGQBcAMQb6frwB1/m3/IM1W/5v/cJeC6ETb/oJMAuAEgAPHjNFkA3ADE2+k68CHLdrevPa79lyDet6grP/8Uv7mn/s7rRtj8g04C4AaAAMSP02QBcAMQb6frwN2W+qnPs8vyP8QitZA/dM51I2z+QScBWD3xoeu409/n3wAUHKbJArAOlH8DUNBUTf8NwFO95n8s+9ve7zSET32Wmq7Kp3YSADcAbgDiJ2CyALgBiLfTdeCpv3Hv8nVP/Zr/bcv/+PNTF+8uX3fdCJt/0EkAVi/sUt+neA43AAWHabIArAPlBqCgqZrdAOx27X8s/Zvvn2Lonvt31nRVPrWTALgBcAMQPwGvvrl4sSRg6tsf//bm611+C73vOdawijdAUeB9P8sunz+W/81lu+t/n7uQP/T3FbVVPLaTAPz2+zdfr9+Cp7598vuLF/EGEDibQKcBQAB+uUqKw66v+d8nHx96mZ/z93WZKs5/l0p5TgQKCBgABVAbvASw+2v+3SWgpqvyqc5/nqlEBNoQMABqSpX8TT2ddVz7r9dU71u0O3/+nN/MP9T31HRVPtX5zzOViEAbAgZATanSSzuVdyz/nRf7Q57tQy30h/49NV2VT3X+80wlItCGgAFQU6rUwk7mdH3N/z4heOhy/hBfX9NV+VTnP89UIgJtCBgANaVKLu5EVvfX/LtJQE1X5VOd/zxTiQi0IWAA1JQqsbRTGce1f/fX/DtJQE1X5VOd/zxTiQi0IWAA1JQqtbwfmzNl+R9y8CGu90/5O2q6Kp/q/OeZSkSgDQEDoKZUj13cie9/rq/5H8v+tvenLOjqr6npqnyq859nKhGBNgQMgJpSJRb4YzKe+2v+ty3/48+rF/x9+TVdlU91/vNMJSLQhoABUFOqxyzvx37vtGv/Y+nffH/fkq78fE1X5VOd/zxTiQi0IWAA1JTqsUv83O8/lv/NZTj1vyuX/F3ZNV2VT3X+80wlItCGgAFQU6pzF/hjvm/qa/73yc1di7rqczVdlU91/vNMJSLQhoABUFOqxyzyc753+mv+u0lATVflU53/PFOJCLQhYADUlOqcJX7u9xzX/s/9f+d/35K/7/NVv+2/L7emq/Kpzn+eqUQE2hAwAGpKde4yf+j3Hcv/vuXn8/////jofcu64s9quiqf6vznmUpEoA0BA6CmVA9d5Od8vdf8z/v/Zlix8G9m1nRVPtX5zzOViEAbAgZATanOWegP+R6v+Z+3/I+bkJsLO/3fNV2VT3X+80wlItCGgAFQU6qHLPOHfu1x7e81/30loKar8qnOf56pRATaEDAAakr10KV+6tdb/o9b+scNwPE+/Zv/kVfTVflU5z/PVCICbQgYADWlOnWhP+TrvOafXf6VElDTVflU5z/PVCICbQgYADWleshiP+VrveZfs/yrJKCmq/Kpzn+eqUQE2hAwAGpKdcpSP/VrXPvXLv8KCajpqnyq859nKhGBNgQMgJpSnbrc7/u6Y/kfS8r7Whk4XsN/7PuarsqnOv95phIRaEPAAKgp1X2L/ZTPe82/dtnfJlOPXf7r+2u6Kp/q/OeZSkSgDQEDoKZUpyz4u77Ga/5Ps/wPKXisBNR0VT7V+c8zlYhAGwIGQE2p7lru933uuPb3v/PvKwE1XZVPdf7zTCUi0IaAAVBTqvuW/G2fP5b/8Zuo9z0loKar8qnOf56pRATaEDAAakp124K/68+95v+0y/422Trn5YCarsqnOv95phIRaEPAAKgp1V2L/n2f85r/nsv/kIKHSkBNV+VTnf88U4kItCFgANSU6n1L/rY/O679veb/fCSgpqvyqc5/nqlEBNoQMABqSnXbsr/558fyP37T9P55SEBNV+VTnf88U4kItCFgANSU6uaif99/e81/72V/m4yd8nJATVflU53/PFOJCLQhYADUlOp9C//tP/Oaf8/lf0jBfRJQ01X5VOc/z1QiAm0IGAA1pXp72d/8+Lj295r/85WAmq7Kpzr/eaYSEWhDwACoKdXNpX/897H8j98kvX+eElDTVflU5z/PVCICbQgYADWlOhb+2++95t972d8ma+97OaCmq/Kpzn+eqUQE2hAwAGpK9fbiXx97zf95Lv9DCm5KQE1X5VOd/zxTiQi0IWAA1JTqbQFw7f+8l//7JKCmq/Kpzn+eqUQE2hAwAGpKdQjAsfz9g79ZElDTVflU5z/PVCICbQgYADWlOq791+K3/Gcs/7dvAmq6Kp/q/OeZSkSgDQEDoKZUx2/+x1Lwfo4ELOGr6ap8qvOfZyqxEYHP/nTxcvJwXv8y/biu3v39GlaNWsujIrA9gU4CsMTq5j+2nPTfn371k/mXPlGTBWAdKAKQ7ih5CPQh0EkA1i9qkxb+zZ+VABScq8kCsA4UAShoKpEINCHQSQDcALgBiB+ryQLgBiDeTgIRaEWgkwC4ASAA8cM1WQDcAMTbSSACrQh0EgA3AAQgfrgmC4AbgHg7CUSgFYFOAuAGgADED9dkAXADEG8ngQi0ItBJANwAEID44ZosAG4A4u0kEIFWBDoJgBsAAhA/XJMFwA1AvJ0EItCKQCcBcANAAOKHa7IAuAGIt5NABFoR6CQAbgAIQPxwTRYANwDxdhKIQCsCnQTADQABiB+uyQLgBiDeTgIRaEWgkwC4ASAA8cM1WQDcAMTbSSACrQh0EgA3AAQgfrgmC4AbgHg7CUSgFYFOAuAGgADED9dkAXADEG8ngQi0ItBJANwAEID44ZosAG4A4u0kEIFWBDoJgBsAAhA/XJMFwA1AvJ0EItCKQCcBcANAAOKHa7IAuAGIt5NABFoR6CQAbgAIQPxwTRYANwDxdhKIQCsCnQTADQABiB+uyQLgBiCw1nuwAAALn0lEQVTeTgIRaEWgkwC4ASAA8cM1WQDcAMTbSSACrQh0EgA3AAQgfrgmC4AbgHg7CUSgFYFOAuAGgADED9dkAXADEG8ngQi0ItBJANwAEID44ZosAG4A4u0kEIFWBDoJgBsAAhA/XJMFwA1AvJ0EItCKQCcBcANAAOKHa7IAuAGIt5NABFoR6CQAbgAIQPxwTRYANwDxdhKIQCsCnQTADQABiB+uyQLgBiDeTgIRaEWgkwC4ASAA8cM1WQDcAMTbSSACrQh0EgA3AAQgfrgmC4AbgHg7CUSgFYFOAuAGgADED9dkAXADEG8ngQi0ItBJANwAEID44ZosAG4A4u0kEIFWBDoJgBsAAhA/XJMFwA1AvJ0EItCKQCcBcANAAOKHa7IAuAGIt5NABFoR6CQAbgAIQPxwTRYANwDxdhKIQCsCnQTADQABiB+uyQLgBiDeTgIRaEWgkwC4ASAA8cM1WQDcAMTbSSACrQh0EgA3AAQgfrgmC4AbgHg7CUSgFYFOAuAGgADED9dkAXADEG8ngQi0ItBJANwAEID44ZosAG4A4u0kEIFWBDoJgBsAAhA/XJMFwA1AvJ0EItCKQCcBcANAAOKHa7IAuAGIt5NABFoR6CQAbgAIQPxwvfrm4uNXr998O/Xtd3+9/OH7H3+56vD23z/+6w9rYHnDQA9kemCdqQ5nfz3jb/58+cMnX/787di3Ly4+ji9AgbMJdPoNoMug8pw9hFKdetVpzarZ09pPj0CYAAHoNQQtLfWa2gMEIDz8xSFAACyUqQvFz92r9wmAfYVAmAAB6DUELS31mtoDBCA8/MUhQAAslKkLxc/dq/cJgH2FQJgAAeg1BC0t9ZraAwQgPPzFIUAALJSpC8XP3av3CYB9hUCYAAHoNQQtLfWa2gMEIDz8xSFAACyUqQvFz92r9wmAfYVAmAAB6DUELS31mtoDBCA8/MUhQAAslKkLxc/dq/cJgH2FQJgAAeg1BC0t9ZraAwQgPPzFIUAALJSpC8XP3av3CYB9hUCYAAHoNQQtLfWa2gMEIDz8xSFAACyUqQvFz92r9wmAfYVAmAAB6DUELS31mtoDBCA8/MUhQAAslKkLxc/dq/cJgH2FQJgAAeg1BC0t9ZraAwQgPPzFIUAALJSpC8XP3av3CYB9hUCYAAHoNQQtLfWa2gMEIDz8xSFAACyUqQvFz92r9wmAfYVAmAAB6DUELS31mtoDBCA8/MUhQAAslKkLxc/dq/cJgH2FQJgAAeg1BC0t9ZraAwQgPPzFIUAALJSpC8XP3av3CYB9hUCYAAHoNQQtLfWa2gMEIDz8xSFAACyUqQvFz92r9wmAfYVAmAAB6DUELS31mtoDBCA8/MUhQAAslKkLxc/dq/cJgH2FQJgAAeg1BC0t9ZraAwQgPPzFIUAALJSpC8XP3av3CYB9hUCYAAHoNQQtLfWa2gMEIDz8xSFAACyUqQvFz92r9wmAfYVAmAAB6DUELS31mtoDBCA8/MUhQAAslKkLxc/dq/cJgH2FQJgAAeg1BC0t9ZraAwQgPPzFIUAALJSpC8XP3av3CYB9hUCYAAHoNQQtLfWa2gMEIDz8xSFAACyUqQvFz92r9wmAfYVAmAAB6DUELS31mtoDBCA8/MUhQAAslKkLxc/dq/cJgH2FQJgAAeg1BC0t9ZraAwQgPPzFIfDd3y9erIPV4e03f7784dXry6sObx14rmf87fdvvu7Acz3jetYuXLswXWeqC9M1q0xsBBAYSuCTL3/+9ldf/nzV4a1LiT796qeXHXiuZ1zP2oVrF6brTHVh6jkRQGAwAQKQLz4ByDNdiQSghqtUBBAYSoAA5AtPAPJMVyIBqOEqFQEEhhIgAPnCE4A805VIAGq4SkUAgaEECEC+8AQgz3QlEoAarlIRQGAoAQKQLzwByDNdiQSghqtUBBAYSoAA5AtPAPJMVyIBqOEqFQEEhhIgAPnCE4A805VIAGq4SkUAgaEECEC+8AQgz3QlEoAarlIRQGAoAQKQLzwByDNdiQSghqtUBBAYSoAA5AtPAPJMVyIBqOEqFQEEhhIgAPnCE4A805VIAGq4SkUAgaEECEC+8AQgz3QlEoAarlIRQGAoAQKQLzwByDNdiQSghqtUBBAYSoAA5AtPAPJMVyIBqOEqFQEEhhIgAPnCE4A805VIAGq4SkUAgaEECEC+8AQgz3QlEoAarlIRQGAoAQKQLzwByDNdiQSghqtUBBAYSoAA5AtPAPJMVyIBqOEqFQEEhhIgAPnCE4A805VIAGq4SkUAgaEECEC+8AQgz3QlEoAarlIRQGAoAQKQLzwByDNdiQSghqtUBBAYSoAA5AtPAPJMVyIBqOEqFQEEhhIgAPnCE4A805VIAGq4SkUAgaEECEC+8AQgz3QlEoAarlIRQGAoAQKQLzwByDNdiQSghqtUBBAYSoAA5AtPAPJMVyIBqOEqFQEEhhIgAPnCE4A805VIAGq4SkUAgaEECEC+8AQgz3QlEoAarlIRQGAoAQKQLzwByDNdiQSghqtUBBAYSoAA5AtPAPJMVyIBqOEqFQEEhhIgAPnCE4A805VIAGq4SkUAgaEECEC+8AQgz3QlEoAarlIRQGAoAQKQLzwByDNdiQSghqtUBBAYSoAA5AtPAPJMVyIBqOEqFQEEhhIgAPnCE4A805VIAGq4SkUAgaEECEC+8AQgz3QlEoAarlIRQGAoAQKQLzwByDNdiQSghqtUBBAYSoAA5AtPAPJMVyIBqOEqFQEEhhIgAPnCE4A805VIAGq4SkUAgaEECEC+8AQgz3QlEoAarlIRQGAoAQKQLzwByDNdiQSghqtUBBAYSoAA5AtPAPJMVyIBqOEqFQEEhhIgAPnCE4A805VIAGq4SkUAgaEECEC+8AQgz3QlEoAarlIRQGAoAQKQLzwByDNdiQSghqtUBBAYSoAA5AtPAPJMVyIBqOEqFQEEhhIgAPnCE4A805VIAGq4SkUAgaEECEC+8AQgz3QlEoAarlIRQGAoAQKQLzwByDNdiQSghqtUBBAYSoAA5AtPAPJMVyIBqOEqFQEEhhIgAPnCE4A805VIAGq4SkUAgaEECEC+8AQgz3QlEoAarlIRQGAoAQKQLzwByDNdiQSghqtUBBAYSoAA5AtPAPJMVyIBqOEqFQEEhhIgAPnCE4A805VIAGq4SkUAgaEECEC+8AQgz3QlEoAarlIRQGAoAQKQLzwByDNdiQSghqtUBBAYSoAA5AtPAPJMVyIBqOEqFQEEhhIgAPnCE4A805VIAGq4SkUAgaEECEC+8AQgz3QlEoAarlIRQGAoAQKQLzwByDNdiQSghqtUBBAYSoAA5AtPAPJMVyIBqOEqFQEEhhL45IuLj9fC6vDWpUSf/P7iRQee6xnXs3bh2obpFxcfd2HqORFAAAEEEEAAAQQQQAABBBBAAAEEEEAAAQQQQAABBBBAAAEEEEAAAQQQQAABBBBAAAEEEEAAAQQQQAABBBBAAAEEEEAAAQQQQAABBBBAAAEEEEAAAQQQQAABBBBAAAEEEEAAAQQQQAABBBBAAAEEEEAAAQQQQAABBBBAAAEEEEAAAQQQQAABBBBAAAEEEEAAAQQQQAABBBBAAAEEEEAAAQQQQAABBBBAAAEEEEAAAQQQQAABBBBAAAEEEEAAAQQQQAABBBBAAAEEEEAAAQQQQAABBBBAAAEEEEAAAQQQQAABBBBAAAEEEEAAAQQQQAABBBBAAAEEEEAAAQQQQAABBBBAAAEEEEAAAQQQQAABBBBAAAEEEEAAAQQQQAABBBBAAAEEEEAAAQQQQAABBBBAAAEEEEAAAQQQQAABBBBAAAEEEEAAAQQQQAABBBBAAAEEEEAAAQQQQAABBBBAAAEEEEAAAQQQQAABBBBAAAEEEEAAAQQQQAABBBBAAAEEEEAAAQQQQAABBBBAAAEEEEAAAQQQQAABBBBAAAEEEEAAAQQQQOBcAv8Ldplhxd7o6QgAAAAASUVORK5CYII=;" parent="34" vertex="1">
                    <mxGeometry x="33.5" y="18" width="53" height="53" as="geometry"/>
                </mxCell>
                <mxCell id="33" value="&lt;b&gt;&lt;font color=&quot;#3399ff&quot;&gt;Virtual Machine&lt;/font&gt;&lt;/b&gt;" style="whiteSpace=wrap;html=1;fontSize=14;fontColor=#003300;fillColor=none;align=left;" parent="34" vertex="1">
                    <mxGeometry x="6.07" y="73" width="107.87" height="35.5" as="geometry"/>
                </mxCell>
                <mxCell id="9" value="Public subnet" style="points=[[0,0],[0.25,0],[0.5,0],[0.75,0],[1,0],[1,0.25],[1,0.5],[1,0.75],[1,1],[0.75,1],[0.5,1],[0.25,1],[0,1],[0,0.75],[0,0.5],[0,0.25]];outlineConnect=0;gradientColor=none;html=1;whiteSpace=wrap;fontSize=12;fontStyle=0;container=1;pointerEvents=0;collapsible=0;recursiveResize=0;shape=mxgraph.aws4.group;grIcon=mxgraph.aws4.group_security_group;grStroke=0;strokeColor=#248814;fillColor=#E9F3E6;verticalAlign=top;align=left;spacingLeft=30;fontColor=#248814;dashed=0;dashPattern=8 8;" parent="4" vertex="1">
                    <mxGeometry x="275.75" y="60.5" width="188.75" height="229" as="geometry"/>
                </mxCell>
                <mxCell id="35" value="" style="group" parent="9" vertex="1" connectable="0">
                    <mxGeometry x="34.37" y="61.5" width="120" height="120" as="geometry"/>
                </mxCell>
                <mxCell id="36" value="" style="whiteSpace=wrap;html=1;aspect=fixed;fontSize=14;fillColor=#FFFFFF;strokeColor=#B3B3B3;gradientColor=none;fillStyle=auto;" parent="35" vertex="1">
                    <mxGeometry width="120" height="120" as="geometry"/>
                </mxCell>
                <mxCell id="37" value="" style="shape=image;verticalLabelPosition=bottom;labelBackgroundColor=default;verticalAlign=top;aspect=fixed;imageAspect=0;image=data:image/png,iVBORw0KGgoAAAANSUhEUgAAAgAAAAIACAYAAAD0eNT6AAAAAXNSR0IArs4c6QAAIABJREFUeAHt3UFundeRhmEvRAvx0Ii3oCUI8SzjHnmQ2AaCRuDMDWWSUcNwOxn0ICtwAAPZjGFSiQdsnO78hECJ5OXlV+Ip1tMAQVokP/18q07Vy3MV9Ecf+T8EEEAAAQQQQAABBBBAAAEEEEAAAQQQQAABBBBAAAEEEEAAAQQQQAABBBBAAAEEEEAAAQQQQAABBBBAAAEEEEAAAQQQQAABBBBAAAEEEEAAAQQQQAABBBBAAAEEEEAAAQQQQAABBBBAAAEEEEAAAQQQQAABBBBAAAEEEEAAAQQQQAABBBBAAAEEEEAAAQQQQAABBBBAAAEEEEAAAQQQQAABBBBAAAEEEEAAAQQQQAABBBBAAAEEEEAAAQQQQAABBBBAAAEEEEAAAQQQQAABBBBAAAEEEEAAAQQQQAABBBBAAAEEEEAAAQQQQAABBBBAAAEEEEAAAQQQQAABBBBAAAEEEEAAAQQQQAABBBBAAAEEEEAAAQQQQAABBBBAAAEEEEAAAQQQQAABBBBAAAEEEEAAAQQQQAABBBBAAAEEEEAAAQQQQAABBBBAAAEEEEAAAQQQQAABBBBAAAEEEEAAAQQQQAABBBBAAAEEEEAAAQQQQAABBBBAAAEEEEAAAQQQQAABBBBAAAEEEEAAAQQQQAABBBBAAAEEEEAAAQQQQAABBBB45gRefXPx8Wd/unjZ4a1LKV59c/GiA8/1jOtZu3BtxPTjLkw9JwIIDCbw6vWbb3/9+vKqw1uXMq1F1YHnesb1rF24dmG6zlQXpp4TAQQGEyAA+eITgDzTlUgAarhKRQCBoQQIQL7wBCDPdCUSgBquUhFAYCgBApAvPAHIM12JBKCGq1QEEBhKgADkC08A8kxXIgGo4SoVAQSGEiAA+cITgDzTlUgAarhKRQCBoQQIQL7wBCDPdCUSgBquUhFAYCgBApAvPAHIM12JBKCGq1QEEBhKgADkC08A8kxXIgGo4SoVAQSGEiAA+cITgDzTlUgAarhKRQCBoQQIQL7wBCDPdCUSgBquUhFAYCgBApAvPAHIM12JBKCGq1QEEBhKgADkC08A8kxXIgGo4SoVAQSGEiAA+cITgDzTlUgAarhKRQCBoQQIQL7wBCDPdCUSgBquUhFAYCgBApAvPAHIM12JBKCGq1QEEBhKgADkC08A8kxXIgGo4SoVAQSGEiAA+cITgDzTlUgAarhKRQCBoQQIQL7wBCDPdCUSgBquUhFAYCgBApAvPAHIM12JBKCGq1QEEBhKgADkC08A8kxXIgGo4SoVAQSGEiAA+cITgDzTlUgAarhKRQCBoQQIQL7wBCDPdCUSgBquUhFAYCgBApAvPAHIM12JBKCGq1QEEBhKgADkC08A8kxXIgGo4SoVAQSGEiAA+cITgDzTlUgAarhKRQCBoQQIQL7wBCDPdCUSgBquUhFAYCgBApAvPAHIM12JBKCGq1QEEBhKgADkC08A8kxXIgGo4SoVAQSGEiAA+cITgDzTlUgAarhKRQCBoQQIQL7wBCDPdCUSgBquUhFAYCgBApAvPAHIM12JBKCGq1QEEBhKgADkC08A8kxXIgGo4SoVAQSGEiAA+cITgDzTlUgAarhKRQCBoQQIQL7wBCDPdCUSgBquUhFAYCgBApAvPAHIM12JBKCGq1QEEBhKgADkC08A8kxXIgGo4SoVAQSGEiAA+cITgDzTlUgAarhKRQCBoQQIQL7wBCDPdCUSgBquUhFAYCgBApAvPAHIM12JBKCGq1QEEBhKgADkC08A8kxXIgGo4SoVAQSGEiAA+cITgDzTlUgAarhKRQCBoQQIQL7wBCDPdCUSgBquUhFAYCgBApAvPAHIM12JBKCGq1QEEBhKgADkC08A8kxXIgGo4SoVAQSGEiAA+cITgDzTlUgAarhKRQCBoQQIQL7wBCDPdCUSgBquUhFAYCgBApAvPAHIM12JBKCGq1QEEBhKgADkC08A8kxXIgGo4SoVAQSGEiAA+cITgDzTlUgAarhKRQCBoQQIQL7wBCDPdCUSgBquUhFAYCgBApAvPAHIM12JBKCGq1QEEBhKgADkC08A8kxXIgGo4SoVAQSGEiAA+cITgDzTlUgAarhKRQCBoQQIQL7wBCDPdCUSgBquUhFAYCgBApAvPAHIM12JBKCGq1QEEBhKgADkC08A8kxXIgGo4SoVAQSGEiAA+cITgDzTlUgAarhKRQCBoQQIQL7wBCDPdCUSgBquUhFAYCgBApAvPAHIM12JBKCGq1QEEBhKgADkC08A8kxXIgGo4SoVAQSGEiAA+cITgDzTlUgAarhKRQCBoQQIQL7wBCDPdCUSgBquUhFAIEjgu79fvPjLP/75ssPb7/56+cPn311edXjrwHM94x//9ubrDjzXM65n7cK1C9N1prowXbMqOPpEIYDAOvzf//jLlTcM9IAe2LkH1qwysRFAIEiAABj6Ow99z6Y/jx4gAMHBLwqBRYAAGLDHgPVeL+zcAwTAzkIgTIAAGPo7D33Ppj+PHiAA4eEvDgECYMAeA9Z7vbBzDxAA+wqBMAECYOjvPPQ9m/48eoAAhIe/OAQIgAF7DFjv9cLOPUAA7CsEwgQIgKG/89D3bPrz6AECEB7+4hAgAAbsMWC91ws79wABsK8QCBMgAIb+zkPfs+nPowcIQHj4i0OAABiwx4D1Xi/s3AMEwL5CIEyAABj6Ow99z6Y/jx4gAOHhLw4BAmDAHgPWe72wcw8QAPsKgTABAmDo7zz0PZv+PHqAAISHvzgECIABewxY7/XCzj1AAOwrBMIECIChv/PQ92z68+gBAhAe/uIQIAAG7DFgvdcLO/cAAbCvEAgTIACG/s5D37Ppz6MHCEB4+ItDgAAYsMeA9V4v7NwDBMC+QiBMgAAY+jsPfc+mP48eIADh4S8OAQJgwB4D1nu9sHMPEAD7CoEwAQJg6O889D2b/jx6gACEh784BAiAAXsMWO/1ws49QADsKwTCBAiAob/z0Pds+vPoAQIQHv7iECAABuwxYL3XCzv3AAGwrxAIEyAAhv7OQ9+z6c+jBwhAePiLQ4AAGLDHgPVeL+zcAwTAvkIgTIAAGPo7D33Ppj+PHiAA4eEvDgECYMAeA9Z7vbBzDxAA+wqBMAECYOjvPPQ9m/48eoAAhIe/OAQIgAF7DFjv9cLOPUAA7CsEwgQIgKG/89D3bPrz6AECEB7+4hAgAAbsMWC91ws79wABsK8QCBMgAIb+zkPfs+nPowcIQHj4i0OAABiwx4D1Xi/s3AMEwL5CIEyAABj6Ow99z6Y/jx4gAOHhLw4BAmDAHgPWe72wcw8QAPsKgTABAmDo7zz0PZv+PHqAAISHvzgECIABewxY7/XCzj1AAOwrBMIECIChv/PQ92z68+gBAhAe/uIQIAAG7DFgvdcLO/cAAbCvEAgTIACG/s5D37Ppz6MHCEB4+Iv76KNX31x8/Or1m2+nvv3ur5c/HAds9/f//eO//rCGgDcM9ECmB9aZ2v3cH8/3mz9f/vDJlz9/O/bti4uP7ewwgc/+dPHy168vr6a+ff7d5dVxwHZ/7zeAcPOLG09gnandz/3xfK9eX1796sufx759+tVPL8c3bBrAZAFYB4oApDtKHgJ9CHQSgPVLGgHo01stnnSyAKwDRQBatKmHRKCEQCcBcAPgBiB+CCYLgBuAeDsJRKAVgU4C4AaAAMQP12QBcAMQbyeBCLQi0EkA3AAQgPjhmiwAbgDi7SQQgVYEOgmAGwACED9ckwXADUC8nQQi0IpAJwFwA0AA4odrsgC4AYi3k0AEWhHoJABuAAhA/HBNFgA3APF2EohAKwKdBMANAAGIH67JAuAGIN5OAhFoRaCTALgBIADxwzVZANwAxNtJIAKtCHQSADcABCB+uCYLgBuAeDsJRKAVgU4C4AaAAMQP12QBcAMQbyeBCLQi0EkA3AAQgPjhmiwAbgDi7SQQgVYEOgmAGwACED9ckwXADUC8nQQi0IpAJwFwA0AA4odrsgC4AYi3k0AEWhHoJABuAAhA/HBNFgA3APF2EohAKwKdBMANAAGIH67JAuAGIN5OAhFoRaCTALgBIADxwzVZANwAxNtJIAKtCHQSADcABCB+uCYLgBuAeDsJRKAVgU4C4AaAAMQP12QBcAMQbyeBCLQi0EkA3AAQgPjhmiwAbgDi7SQQgVYEOgmAGwACED9ckwXADUC8nQQi0IpAJwFwA0AA4odrsgC4AYi3k0AEWhHoJABuAAhA/HBNFgA3APF2EohAKwKdBMANAAGIH67JAuAGIN5OAhFoRaCTALgBIADxwzVZANwAxNtJIAKtCHQSADcABCB+uCYLgBuAeDsJRKAVgU4C4AaAAMQP12QBcAMQbyeBCLQi0EkA3AAQgPjhmiwAbgDi7SQQgVYEOgmAGwACED9ckwXADUC8nQQi0IpAJwFwA0AA4odrsgC4AYi3k0AEWhHoJABuAAhA/HBNFgA3APF2EohAKwKdBMANAAGIH67JAuAGIN5OAhFoRaCTALgBIADxwzVZANwAxNtJIAKtCHQSADcABCB+uCYLgBuAeDsJRKAVgU4C4AaAAMQP12QBcAMQbyeBCLQi0EkA3AAQgPjhmiwAbgDi7SQQgVYEOgmAGwACED9ckwXADUC8nQQi0IpAJwFwA0AA4odrsgC4AYi3k0AEWhHoJABuAAhA/HBNFgA3APF2EohAKwKdBMANAAGIH67JAuAGIN5OAhFoRaCTALgBIACtDleHh+00ANazdmC6nvH7H3+58jaTwX/81+VVlz51/rtUynMiUEDAACiASgDGys9a/r/68mcCUCDAnX4BqJkqUhEIEyAAYaD/jvPb/7zf/o/lTwBqak8AamaV1MEECEBN8QlAzRLYlevby58A1NSeANTMKqmDCRCAmuLvuqg8V3453Vz+BCDPePUtAaiZVVIHEyAANcW3aGuWwG5c37f8CUBN7QlAzaySOpgAAagp/m6LyvPkl9Jty58A5Fmv/iUANbNK6mACBKCm+BZuzRLYhetdy58A1NSeANTMKqmDCRCAmuLvsqg8R34Z3bf8CUCe+epjAlAzq6QOJkAAaopv8dYsgafmesryJwA1tScANbNK6mACBKCm+E+9qPz9+SV06vInAHn2q58JQM2skjqYAAGoKb4FXLMEnorrQ5Y/AaipPQGomVVSBxMgADXFf6pF5e/NL5+HLn8CkK/B6msCUDOrpA4mQABqim8R1yyBD831nOVPAGpqTwBqZpXUwQQIQE3xP/Si8vfll865y58A5Gux+psA1MwqqYMJEICa4lvINUvgQ3F9zPInADW1JwA1s0rqYAIEoKb4H2pR+Xvyy+axy58A5Guy+pwA1MwqqYMJEICa4lvMNUugmmti+ROAmtoTgJpZJXUwAQJQU/zqRSU/v2RSy58A5Guz+p0A1MwqqYMJEICa4lvQNUugimty+ROAmtoTgJpZJXUwAQJQU/yqRSU3v1zSy58A5Gu0+p4A1MwqqYMJEICa4lvUNUsgzbVi+ROAmtoTgJpZJXUwAQJQU/z0opKXXypVy58A5Gu1+p8A1MwqqYMJEICa4lvYNUsgxbVy+ROAmtoTgJpZJXUwAQJQU/zUopKTXybVy58A5Gu2zgEBqJlVUgcTIAA1xbe4a5bAY7l+iOVPAGpqTwBqZpXUwQQIQE3xH7uofH9+iXyo5U8A8rVb54EA1MwqqYMJEICa4lvgNUvgXK4fcvkTgJraE4CaWSV1MAECUFP8cxeV78svjw+9/AlAvobrXBCAmlkldTABAlBTfIu8Zgk8lOtTLH8CUFN7AlAzq6QOJkAAaor/0EXl6/NL46mWPwHI13KdDwJQM6ukDiZAAGqKb6HXLIFTuT7l8icANbUnADWzSupgAgSgpvinLipfl18WT738CUC+puucEICaWSV1MAECUFN8i71mCdzHdYflTwBqak8AamaV1MEECEBN8e9bVD6fXxK7LH8CkK/tOi8EoGZWSR1MgADUFN+Cr1kCt3HdafkTgJraE4CaWSV1MAECUFP82xaVP88vh92WPwHI13idGwJQM6ukDiZAAGqKb9HXLIGbXHdc/gSgpvYEoGZWSR1MgADUFP/movLf+aWw6/InAPlar/NDAGpmldTBBAhATfEt/JolcHDdefkTgJraE4CaWSV1MAECUFP8Y1F5n18Guy9/ApCv+TpHBKBmVkkdTIAA1BTf4q9ZAh2WPwGoqT0BqJlVo1NffXPx4rM/Xbyc+vbHv735usuy6jQAujDt9Jxdlj8BqBGA337/5utPv/rp5dS3T35/8WL0sq744dfi//Xry6uJb69eX159/t3lVZclQABqBmuH+nda/gSgpk/XvFpsp74t8anYgaMzJwvAkh4CUNP+HZZql2fstvwJAAGokBQCUDCrJwuAG4CChvp3ZJfluvtzdlz+BKBGANYvLBWLtUsmASiY15MFwA1AQUMRgNhLSl2XPwGoEQAvAXgJID6xJwuAG4B4O10H7v6b9e7P13n5E4AaAXADQACuB2zqg8kC4AYg1UXv5uy+YHd+vu7LnwDUCIAbAALw7qR95J9MFgA3AI9snju+fecFu/OzPYflTwBqBMANAAG4Y+Se96nJAuAG4LyeOeW7dl6yuz7bc1n+BKBGANwAEIBTZu+DvmayALgBeFCrPOiLd12yuz7Xc1r+BKBGANwAEIAHDeFTvniyALgBOKVDzvuaXRftjs/13JY/AagRADcABOC8aXzHd00WADcAdzTGIz+146Ld8Zme4/InADUC4AaAADxyLL/77ZMFwA3Au/2Q+pMdl+1uz/Rclz8BqBEANwAEIDWfr3MmC4AbgOs2iH+w27Ld7Xme8/InADUC4AaAAMQH9WQBcAMQb6frwN0W7k7P89yXPwGoEQA3AATgesCmPpgsAG4AUl30bs5OC3enZ5mw/AlAjQC4ASAA707aR/7JZAFwA/DI5rnj23daurs8y5TlTwBqBMANAAG4Y+Se96nJAuAG4LyeOeW7dlm6uzzHpOVPAGoEwA0AAThl9j7oayYLgBuAB7XKg754l8W7w3NMW/4EoEYA3AAQgAcN4VO+eLIAuAE4pUPO+5odFu8OzzBx+ROAGgFwA0AAzpvGd3zXZAFwA3BHYzzyUzss36d+hqnLnwDUCIAbAALwyLH87rdPFgA3AO/2Q+pPnnr5PvXfP3n5E4AaAXADQABS8/k6Z7IAuAG4boP4B0+9gJ/y7//8u8ur6cM63lBFgX/5xz9fPmWvPOTvdgNAAOLHYLIAuAGIt9N14EMG23P62v/8n3/+3/JfAjB5YF83wuYfdBKA6VL56VcEIH6cJguAG4B4O10HPqelfurPcvzmv/rq7bd1JT7t7boRNv+gkwBMFsp1fghAwWGaLABuAAoa6t+Rpy7N5/J1b//m//byPz4mAHW99pjkTgKwemlaH7398xKAx3T6Ld87WQDWgVq/tXVZQmtY3VLG7f64C9PEc67lv2TyWPa3vX97mD33j7dryFseqJMAuAHwEsAtbXz+H08WADcA5/fNfd+ZWKwdMo7lf4oATPoN7r7+2OXznQRgUv+8T5DdABScmskCsA6UG4CCpvroo486LO/HPuPxmv+py/+4GXjfcHtuf1bTVfnUTgLgBsANQPwETBYANwDxdroOfOxy3f3773vN/1j2t71/bgv/5s9z3Qibf9BJAFYv3eQ86b/dABQcpskCsA6UG4CCpnrmNwAPvfafKAE1XZVP7SQAbgDcAMRPwGQBcAMQb6frwN1/gz/3+Y7lf9tSf+ifP9ff4K4bYfMPOgnA6q3n2i+n/FxuAAoO02QBWAfKDUBBUz3TG4BzX/O/TwpOGX7dvqamq/KpnQTADYAbgPgJmCwAbgDi7XQdeO5v2Lt+32Nf858mAdeNsPkHnQTADQABiB+nyQLgBiDeTteBuy7yc57ruPZfwnjfIn/M57v9ln/X8143wuYfdBIANwAEIH6cJguAG4B4O10HnrNod/yeY/k/ZrE/5HvvWqqdPnfdCJt/0EkAVh916oH0s/o3AAWHabIArAPl3wAUNNUz+TcAVa/53ycE6cH5FHk1XZVP7SQAbgDcAMRPwGQBcAMQb6frwB1/m3/IM1W/5v/cJeC6ETb/oJMAuAEgAPHjNFkA3ADE2+k68CHLdrevPa79lyDet6grP/8Uv7mn/s7rRtj8g04C4AaAAMSP02QBcAMQb6frwN2W+qnPs8vyP8QitZA/dM51I2z+QScBWD3xoeu409/n3wAUHKbJArAOlH8DUNBUTf8NwFO95n8s+9ve7zSET32Wmq7Kp3YSADcAbgDiJ2CyALgBiLfTdeCpv3Hv8nVP/Zr/bcv/+PNTF+8uX3fdCJt/0EkAVi/sUt+neA43AAWHabIArAPlBqCgqZrdAOx27X8s/Zvvn2Lonvt31nRVPrWTALgBcAMQPwGvvrl4sSRg6tsf//bm611+C73vOdawijdAUeB9P8sunz+W/81lu+t/n7uQP/T3FbVVPLaTAPz2+zdfr9+Cp7598vuLF/EGEDibQKcBQAB+uUqKw66v+d8nHx96mZ/z93WZKs5/l0p5TgQKCBgABVAbvASw+2v+3SWgpqvyqc5/nqlEBNoQMABqSpX8TT2ddVz7r9dU71u0O3/+nN/MP9T31HRVPtX5zzOViEAbAgZATanSSzuVdyz/nRf7Q57tQy30h/49NV2VT3X+80wlItCGgAFQU6rUwk7mdH3N/z4heOhy/hBfX9NV+VTnP89UIgJtCBgANaVKLu5EVvfX/LtJQE1X5VOd/zxTiQi0IWAA1JQqsbRTGce1f/fX/DtJQE1X5VOd/zxTiQi0IWAA1JQqtbwfmzNl+R9y8CGu90/5O2q6Kp/q/OeZSkSgDQEDoKZUj13cie9/rq/5H8v+tvenLOjqr6npqnyq859nKhGBNgQMgJpSJRb4YzKe+2v+ty3/48+rF/x9+TVdlU91/vNMJSLQhoABUFOqxyzvx37vtGv/Y+nffH/fkq78fE1X5VOd/zxTiQi0IWAA1JTqsUv83O8/lv/NZTj1vyuX/F3ZNV2VT3X+80wlItCGgAFQU6pzF/hjvm/qa/73yc1di7rqczVdlU91/vNMJSLQhoABUFOqxyzyc753+mv+u0lATVflU53/PFOJCLQhYADUlOqcJX7u9xzX/s/9f+d/35K/7/NVv+2/L7emq/Kpzn+eqUQE2hAwAGpKde4yf+j3Hcv/vuXn8/////jofcu64s9quiqf6vznmUpEoA0BA6CmVA9d5Od8vdf8z/v/Zlix8G9m1nRVPtX5zzOViEAbAgZATanOWegP+R6v+Z+3/I+bkJsLO/3fNV2VT3X+80wlItCGgAFQU6qHLPOHfu1x7e81/30loKar8qnOf56pRATaEDAAakr10KV+6tdb/o9b+scNwPE+/Zv/kVfTVflU5z/PVCICbQgYADWlOnWhP+TrvOafXf6VElDTVflU5z/PVCICbQgYADWleshiP+VrveZfs/yrJKCmq/Kpzn+eqUQE2hAwAGpKdcpSP/VrXPvXLv8KCajpqnyq859nKhGBNgQMgJpSnbrc7/u6Y/kfS8r7Whk4XsN/7PuarsqnOv95phIRaEPAAKgp1X2L/ZTPe82/dtnfJlOPXf7r+2u6Kp/q/OeZSkSgDQEDoKZUpyz4u77Ga/5Ps/wPKXisBNR0VT7V+c8zlYhAGwIGQE2p7lru933uuPb3v/PvKwE1XZVPdf7zTCUi0IaAAVBTqvuW/G2fP5b/8Zuo9z0loKar8qnOf56pRATaEDAAakp124K/68+95v+0y/422Trn5YCarsqnOv95phIRaEPAAKgp1V2L/n2f85r/nsv/kIKHSkBNV+VTnf88U4kItCFgANSU6n1L/rY/O679veb/fCSgpqvyqc5/nqlEBNoQMABqSnXbsr/558fyP37T9P55SEBNV+VTnf88U4kItCFgANSU6uaif99/e81/72V/m4yd8nJATVflU53/PFOJCLQhYADUlOp9C//tP/Oaf8/lf0jBfRJQ01X5VOc/z1QiAm0IGAA1pXp72d/8+Lj295r/85WAmq7Kpzr/eaYSEWhDwACoKdXNpX/897H8j98kvX+eElDTVflU5z/PVCICbQgYADWlOhb+2++95t972d8ma+97OaCmq/Kpzn+eqUQE2hAwAGpK9fbiXx97zf95Lv9DCm5KQE1X5VOd/zxTiQi0IWAA1JTqbQFw7f+8l//7JKCmq/Kpzn+eqUQE2hAwAGpKdQjAsfz9g79ZElDTVflU5z/PVCICbQgYADWlOq791+K3/Gcs/7dvAmq6Kp/q/OeZSkSgDQEDoKZUx2/+x1Lwfo4ELOGr6ap8qvOfZyqxEYHP/nTxcvJwXv8y/biu3v39GlaNWsujIrA9gU4CsMTq5j+2nPTfn371k/mXPlGTBWAdKAKQ7ih5CPQh0EkA1i9qkxb+zZ+VABScq8kCsA4UAShoKpEINCHQSQDcALgBiB+ryQLgBiDeTgIRaEWgkwC4ASAA8cM1WQDcAMTbSSACrQh0EgA3AAQgfrgmC4AbgHg7CUSgFYFOAuAGgADED9dkAXADEG8ngQi0ItBJANwAEID44ZosAG4A4u0kEIFWBDoJgBsAAhA/XJMFwA1AvJ0EItCKQCcBcANAAOKHa7IAuAGIt5NABFoR6CQAbgAIQPxwTRYANwDxdhKIQCsCnQTADQABiB+uyQLgBiDeTgIRaEWgkwC4ASAA8cM1WQDcAMTbSSACrQh0EgA3AAQgfrgmC4AbgHg7CUSgFYFOAuAGgADED9dkAXADEG8ngQi0ItBJANwAEID44ZosAG4A4u0kEIFWBDoJgBsAAhA/XJMFwA1AvJ0EItCKQCcBcANAAOKHa7IAuAGIt5NABFoR6CQAbgAIQPxwTRYANwDxdhKIQCsCnQTADQABiB+uyQLgBiCw1nuwAAALn0lEQVTeTgIRaEWgkwC4ASAA8cM1WQDcAMTbSSACrQh0EgA3AAQgfrgmC4AbgHg7CUSgFYFOAuAGgADED9dkAXADEG8ngQi0ItBJANwAEID44ZosAG4A4u0kEIFWBDoJgBsAAhA/XJMFwA1AvJ0EItCKQCcBcANAAOKHa7IAuAGIt5NABFoR6CQAbgAIQPxwTRYANwDxdhKIQCsCnQTADQABiB+uyQLgBiDeTgIRaEWgkwC4ASAA8cM1WQDcAMTbSSACrQh0EgA3AAQgfrgmC4AbgHg7CUSgFYFOAuAGgADED9dkAXADEG8ngQi0ItBJANwAEID44ZosAG4A4u0kEIFWBDoJgBsAAhA/XJMFwA1AvJ0EItCKQCcBcANAAOKHa7IAuAGIt5NABFoR6CQAbgAIQPxwTRYANwDxdhKIQCsCnQTADQABiB+uyQLgBiDeTgIRaEWgkwC4ASAA8cM1WQDcAMTbSSACrQh0EgA3AAQgfrgmC4AbgHg7CUSgFYFOAuAGgADED9dkAXADEG8ngQi0ItBJANwAEID44ZosAG4A4u0kEIFWBDoJgBsAAhA/XJMFwA1AvJ0EItCKQCcBcANAAOKHa7IAuAGIt5NABFoR6CQAbgAIQPxwvfrm4uNXr998O/Xtd3+9/OH7H3+56vD23z/+6w9rYHnDQA9kemCdqQ5nfz3jb/58+cMnX/787di3Ly4+ji9AgbMJdPoNoMug8pw9hFKdetVpzarZ09pPj0CYAAHoNQQtLfWa2gMEIDz8xSFAACyUqQvFz92r9wmAfYVAmAAB6DUELS31mtoDBCA8/MUhQAAslKkLxc/dq/cJgH2FQJgAAeg1BC0t9ZraAwQgPPzFIUAALJSpC8XP3av3CYB9hUCYAAHoNQQtLfWa2gMEIDz8xSFAACyUqQvFz92r9wmAfYVAmAAB6DUELS31mtoDBCA8/MUhQAAslKkLxc/dq/cJgH2FQJgAAeg1BC0t9ZraAwQgPPzFIUAALJSpC8XP3av3CYB9hUCYAAHoNQQtLfWa2gMEIDz8xSFAACyUqQvFz92r9wmAfYVAmAAB6DUELS31mtoDBCA8/MUhQAAslKkLxc/dq/cJgH2FQJgAAeg1BC0t9ZraAwQgPPzFIUAALJSpC8XP3av3CYB9hUCYAAHoNQQtLfWa2gMEIDz8xSFAACyUqQvFz92r9wmAfYVAmAAB6DUELS31mtoDBCA8/MUhQAAslKkLxc/dq/cJgH2FQJgAAeg1BC0t9ZraAwQgPPzFIUAALJSpC8XP3av3CYB9hUCYAAHoNQQtLfWa2gMEIDz8xSFAACyUqQvFz92r9wmAfYVAmAAB6DUELS31mtoDBCA8/MUhQAAslKkLxc/dq/cJgH2FQJgAAeg1BC0t9ZraAwQgPPzFIUAALJSpC8XP3av3CYB9hUCYAAHoNQQtLfWa2gMEIDz8xSFAACyUqQvFz92r9wmAfYVAmAAB6DUELS31mtoDBCA8/MUhQAAslKkLxc/dq/cJgH2FQJgAAeg1BC0t9ZraAwQgPPzFIUAALJSpC8XP3av3CYB9hUCYAAHoNQQtLfWa2gMEIDz8xSFAACyUqQvFz92r9wmAfYVAmAAB6DUELS31mtoDBCA8/MUhQAAslKkLxc/dq/cJgH2FQJgAAeg1BC0t9ZraAwQgPPzFIfDd3y9erIPV4e03f7784dXry6sObx14rmf87fdvvu7Acz3jetYuXLswXWeqC9M1q0xsBBAYSuCTL3/+9ldf/nzV4a1LiT796qeXHXiuZ1zP2oVrF6brTHVh6jkRQGAwAQKQLz4ByDNdiQSghqtUBBAYSoAA5AtPAPJMVyIBqOEqFQEEhhIgAPnCE4A805VIAGq4SkUAgaEECEC+8AQgz3QlEoAarlIRQGAoAQKQLzwByDNdiQSghqtUBBAYSoAA5AtPAPJMVyIBqOEqFQEEhhIgAPnCE4A805VIAGq4SkUAgaEECEC+8AQgz3QlEoAarlIRQGAoAQKQLzwByDNdiQSghqtUBBAYSoAA5AtPAPJMVyIBqOEqFQEEhhIgAPnCE4A805VIAGq4SkUAgaEECEC+8AQgz3QlEoAarlIRQGAoAQKQLzwByDNdiQSghqtUBBAYSoAA5AtPAPJMVyIBqOEqFQEEhhIgAPnCE4A805VIAGq4SkUAgaEECEC+8AQgz3QlEoAarlIRQGAoAQKQLzwByDNdiQSghqtUBBAYSoAA5AtPAPJMVyIBqOEqFQEEhhIgAPnCE4A805VIAGq4SkUAgaEECEC+8AQgz3QlEoAarlIRQGAoAQKQLzwByDNdiQSghqtUBBAYSoAA5AtPAPJMVyIBqOEqFQEEhhIgAPnCE4A805VIAGq4SkUAgaEECEC+8AQgz3QlEoAarlIRQGAoAQKQLzwByDNdiQSghqtUBBAYSoAA5AtPAPJMVyIBqOEqFQEEhhIgAPnCE4A805VIAGq4SkUAgaEECEC+8AQgz3QlEoAarlIRQGAoAQKQLzwByDNdiQSghqtUBBAYSoAA5AtPAPJMVyIBqOEqFQEEhhIgAPnCE4A805VIAGq4SkUAgaEECEC+8AQgz3QlEoAarlIRQGAoAQKQLzwByDNdiQSghqtUBBAYSoAA5AtPAPJMVyIBqOEqFQEEhhIgAPnCE4A805VIAGq4SkUAgaEECEC+8AQgz3QlEoAarlIRQGAoAQKQLzwByDNdiQSghqtUBBAYSoAA5AtPAPJMVyIBqOEqFQEEhhIgAPnCE4A805VIAGq4SkUAgaEECEC+8AQgz3QlEoAarlIRQGAoAQKQLzwByDNdiQSghqtUBBAYSoAA5AtPAPJMVyIBqOEqFQEEhhIgAPnCE4A805VIAGq4SkUAgaEECEC+8AQgz3QlEoAarlIRQGAoAQKQLzwByDNdiQSghqtUBBAYSoAA5AtPAPJMVyIBqOEqFQEEhhIgAPnCE4A805VIAGq4SkUAgaEECEC+8AQgz3QlEoAarlIRQGAoAQKQLzwByDNdiQSghqtUBBAYSoAA5AtPAPJMVyIBqOEqFQEEhhIgAPnCE4A805VIAGq4SkUAgaEECEC+8AQgz3QlEoAarlIRQGAoAQKQLzwByDNdiQSghqtUBBAYSoAA5AtPAPJMVyIBqOEqFQEEhhIgAPnCE4A805VIAGq4SkUAgaEECEC+8AQgz3QlEoAarlIRQGAoAQKQLzwByDNdiQSghqtUBBAYSoAA5AtPAPJMVyIBqOEqFQEEhhIgAPnCE4A805VIAGq4SkUAgaEECEC+8AQgz3QlEoAarlIRQGAoAQKQLzwByDNdiQSghqtUBBAYSoAA5AtPAPJMVyIBqOEqFQEEhhL45IuLj9fC6vDWpUSf/P7iRQee6xnXs3bh2obpFxcfd2HqORFAAAEEEEAAAQQQQAABBBBAAAEEEEAAAQQQQAABBBBAAAEEEEAAAQQQQAABBBBAAAEEEEAAAQQQQAABBBBAAAEEEEAAAQQQQAABBBBAAAEEEEAAAQQQQAABBBBAAAEEEEAAAQQQQAABBBBAAAEEEEAAAQQQQAABBBBAAAEEEEAAAQQQQAABBBBAAAEEEEAAAQQQQAABBBBAAAEEEEAAAQQQQAABBBBAAAEEEEAAAQQQQAABBBBAAAEEEEAAAQQQQAABBBBAAAEEEEAAAQQQQAABBBBAAAEEEEAAAQQQQAABBBBAAAEEEEAAAQQQQAABBBBAAAEEEEAAAQQQQAABBBBAAAEEEEAAAQQQQAABBBBAAAEEEEAAAQQQQAABBBBAAAEEEEAAAQQQQAABBBBAAAEEEEAAAQQQQAABBBBAAAEEEEAAAQQQQAABBBBAAAEEEEAAAQQQQAABBBBAAAEEEEAAAQQQQAABBBBAAAEEEEAAAQQQQAABBBBAAAEEEEAAAQQQQAABBBBAAAEEEEAAAQQQQAABBBBAAAEEEEAAAQQQQOBcAv8Ldplhxd7o6QgAAAAASUVORK5CYII=;" parent="35" vertex="1">
                    <mxGeometry x="33.5" y="18" width="53" height="53" as="geometry"/>
                </mxCell>
                <mxCell id="38" value="&lt;b&gt;&lt;font color=&quot;#3399ff&quot;&gt;Virtual Machine&lt;/font&gt;&lt;/b&gt;" style="whiteSpace=wrap;html=1;fontSize=14;fontColor=#003300;fillColor=none;align=left;" parent="35" vertex="1">
                    <mxGeometry x="6.07" y="73" width="107.87" height="35.5" as="geometry"/>
                </mxCell>
                <mxCell id="11" value="" style="editableCssRules=.*;shape=image;verticalLabelPosition=bottom;labelBackgroundColor=#ffffff;verticalAlign=top;aspect=fixed;imageAspect=0;image=data:image/svg+xml,PHN2ZyB4bWxucz0iaHR0cDovL3d3dy53My5vcmcvMjAwMC9zdmciIHhtbG5zOnY9Imh0dHBzOi8vdmVjdGEuaW8vbmFubyIgd2lkdGg9IjIwIiBoZWlnaHQ9IjIwIiBmaWxsPSIjNDI4NWY0IiB2aWV3Qm94PSIwIDAgMjAgMjAiPiYjeGE7CTxzdHlsZSB0eXBlPSJ0ZXh0L2NzcyI+JiN4YTsJLnN0MHtmaWxsOiM0Mjg1ZjQ7fSYjeGE7CTwvc3R5bGU+JiN4YTsJPHBhdGggY2xhc3M9InN0MCIgZD0iTTAgMGg4Ljg5djIuMjJIMHptMCAxNy43OGg4Ljg5VjIwSDB6bTAtOC44OWg4Ljg5djIuMjJIMHpNMTEuMTEgMEgyMHYyLjIyaC04Ljg5em0wIDE3Ljc4SDIwVjIwaC04Ljg5em0wLTguODlIMjB2Mi4yMmgtOC44OXpNNS41NSA0LjQ0aDguODl2Mi4yMkg1LjU1em0wIDguODloOC44OXYyLjIySDUuNTV6TTAgNC40NGgzLjMzdjIuMjJIMHptMCA4Ljg5aDMuMzN2Mi4yMkgwem0xNi42Ny04Ljg5SDIwdjIuMjJoLTMuMzN6bTAgOC44OUgyMHYyLjIyaC0zLjMzeiIvPiYjeGE7PC9zdmc+;dashed=1;dashPattern=8 8;fontSize=14;fontColor=#003300;fillColor=none;" parent="4" vertex="1">
                    <mxGeometry x="216.31" y="143" width="42.878289473684205" height="42.878289473684205" as="geometry"/>
                </mxCell>
                <mxCell id="12" value="&lt;b&gt;&lt;font color=&quot;#3399ff&quot;&gt;Firewall&lt;/font&gt;&lt;/b&gt;" style="whiteSpace=wrap;html=1;fontSize=14;fontColor=#003300;fillColor=none;align=left;" parent="4" vertex="1">
                    <mxGeometry x="210.74999999999997" y="181" width="43.34" height="35.29" as="geometry"/>
                </mxCell>
                <mxCell id="44" value="" style="endArrow=classic;startArrow=classic;html=1;strokeColor=#3399FF;fontSize=14;fontColor=#3399FF;fillColor=#3399FF;strokeWidth=5;" parent="4" edge="1">
                    <mxGeometry width="50" height="50" relative="1" as="geometry">
                        <mxPoint x="202" y="221" as="sourcePoint"/>
                        <mxPoint x="279" y="221" as="targetPoint"/>
                    </mxGeometry>
                </mxCell>
                <mxCell id="58" value="" style="group" parent="4" vertex="1" connectable="0">
                    <mxGeometry x="176" y="42" width="137" height="22" as="geometry"/>
                </mxCell>
                <mxCell id="46" value="" style="edgeStyle=elbowEdgeStyle;elbow=vertical;endArrow=classic;html=1;curved=0;rounded=0;endSize=8;startSize=8;strokeColor=#3399FF;strokeWidth=2;fontSize=14;fontColor=#3399FF;fillColor=#3399FF;entryX=0.651;entryY=0.983;entryDx=0;entryDy=0;entryPerimeter=0;" parent="58" target="7" edge="1">
                    <mxGeometry width="50" height="50" relative="1" as="geometry">
                        <mxPoint x="11.75" y="18.5" as="sourcePoint"/>
                        <mxPoint x="62.75" y="-98" as="targetPoint"/>
                        <Array as="points">
                            <mxPoint x="31"/>
                            <mxPoint y="22"/>
                        </Array>
                    </mxGeometry>
                </mxCell>
                <mxCell id="48" value="" style="edgeStyle=elbowEdgeStyle;elbow=vertical;endArrow=none;html=1;curved=0;rounded=0;endSize=8;startSize=8;strokeColor=#3399FF;strokeWidth=2;fontSize=14;fontColor=#3399FF;fillColor=#3399FF;endFill=0;" parent="58" edge="1">
                    <mxGeometry width="50" height="50" relative="1" as="geometry">
                        <mxPoint x="173.75" y="18.5" as="sourcePoint"/>
                        <mxPoint x="43.75" as="targetPoint"/>
                        <Array as="points">
                            <mxPoint x="137"/>
                        </Array>
                    </mxGeometry>
                </mxCell>
                <mxCell id="52" value="" style="group" parent="1" vertex="1" connectable="0">
                    <mxGeometry x="322" y="88" width="114" height="74" as="geometry"/>
                </mxCell>
                <mxCell id="51" value="" style="html=1;verticalLabelPosition=bottom;align=center;labelBackgroundColor=#ffffff;verticalAlign=top;strokeWidth=2;strokeColor=#0080F0;shadow=0;dashed=0;shape=mxgraph.ios7.icons.cloud;fillStyle=auto;fontSize=14;fontColor=#3399FF;fillColor=#FFFFFF;gradientColor=none;" parent="52" vertex="1">
                    <mxGeometry width="114" height="69" as="geometry"/>
                </mxCell>
                <mxCell id="7" value="&lt;b&gt;Internet&lt;/b&gt;" style="whiteSpace=wrap;html=1;fontSize=14;fontColor=#003300;fillColor=none;align=left;strokeColor=none;" parent="52" vertex="1">
                    <mxGeometry x="31" y="14" width="63" height="60" as="geometry"/>
                </mxCell>
                <mxCell id="61" value="&lt;font style=&quot;font-size: 16px;&quot; color=&quot;#000000&quot;&gt;&lt;b&gt;Infrastructure on Google Cloud Platform&lt;/b&gt;&lt;/font&gt;" style="rounded=0;whiteSpace=wrap;html=1;fillColor=none;strokeColor=none;" vertex="1" parent="1">
                    <mxGeometry x="231.5" y="552" width="317" height="31" as="geometry"/>
                </mxCell>
            </root>
        </mxGraphModel>
    </diagram>
</mxfile>